<svg xmlns="http://www.w3.org/2000/svg" width="35" height="35.014" viewBox="0 0 35 35.014">
  <g id="Grupo_12" data-name="Grupo 12" transform="translate(-38.325 -814.127)">
    <path id="Caminho_9" data-name="Caminho 9" d="M57.121,849.14H54.386c-.05-.117-.157-.064-.238-.073a17.507,17.507,0,1,1,18.99-19.985,5.172,5.172,0,0,0,.187,1.187v2.8a2.814,2.814,0,0,0-.152.916,17.565,17.565,0,0,1-14.8,14.965A6.9,6.9,0,0,0,57.121,849.14Zm.688-10.489c0-1.846.006-3.691-.007-5.536,0-.276.054-.366.349-.362,1.276.018,2.552,0,3.827.014.273,0,.365-.047.361-.345-.018-1.3-.014-2.6,0-3.9,0-.263-.06-.341-.332-.337-1.31.016-2.62.007-3.93.007-.13,0-.275.042-.272-.187.012-1.048-.031-2.1.028-3.143.067-1.18.606-1.683,1.784-1.787.875-.077,1.753-.018,2.63-.033.143,0,.263.012.262-.2-.008-1.288-.006-2.575,0-3.862,0-.143-.033-.2-.189-.2-1.479.039-2.964-.1-4.438.08a5.141,5.141,0,0,0-3.6,1.986,6.353,6.353,0,0,0-1.185,3.947c-.008,1.036-.009,2.073,0,3.11,0,.243-.068.3-.3.3-1.116-.012-2.233,0-3.349-.01-.231,0-.311.051-.309.3q.019,1.982,0,3.964c0,.272.092.315.333.312,1.082-.012,2.164.008,3.246-.014.318-.006.386.086.385.391-.011,3.68,0,7.359-.013,11.039,0,.253.055.321.314.318q2.05-.021,4.1,0c.25,0,.321-.05.319-.312C57.8,842.342,57.809,840.5,57.809,838.651Z" fill="#fee"/>
  </g>
</svg>
