<svg xmlns="http://www.w3.org/2000/svg" width="35" height="34.999" viewBox="0 0 35 34.999">
  <g id="Grupo_11" data-name="Grupo 11" transform="translate(242.25 -1034.459)">
    <path id="Caminho_6" data-name="Caminho 6" d="M-242.25,1053.394v-2.871c.107-.038.064-.133.071-.2a18.286,18.286,0,0,1,.362-2.256,17.519,17.519,0,0,1,20.493-13.268,17.52,17.52,0,0,1,13.888,14.609,5.139,5.139,0,0,0,.186,1.187v2.8a2.8,2.8,0,0,0-.152.916,17.233,17.233,0,0,1-4.211,9.194,17.251,17.251,0,0,1-10.55,5.764,7.132,7.132,0,0,0-1.289.191h-2.734c-.038-.107-.133-.064-.2-.072a18.95,18.95,0,0,1-2.421-.4,17.516,17.516,0,0,1-13.255-14.47A4.262,4.262,0,0,0-242.25,1053.394Zm27.549-1.408c-.007-1.447.017-2.894-.07-4.339a6.424,6.424,0,0,0-.914-3.176,5.456,5.456,0,0,0-4.622-2.478c-2.959-.144-5.922-.133-8.882,0a5.963,5.963,0,0,0-3.155.972,5.5,5.5,0,0,0-2.374,4.577c-.139,2.948-.13,5.9,0,8.849a5.984,5.984,0,0,0,.949,3.128,5.513,5.513,0,0,0,4.626,2.412c2.926.136,5.854.13,8.78,0a5.776,5.776,0,0,0,3.859-1.5,5.872,5.872,0,0,0,1.733-4.141C-214.685,1054.857-214.706,1053.421-214.7,1051.985Z" transform="translate(0 0)" fill="#fee"/>
    <path id="Caminho_7" data-name="Caminho 7" d="M-132.6,1136c1.513.044,3.028-.018,4.54.1a3.583,3.583,0,0,1,3.568,3.588,80.844,80.844,0,0,1,0,9.115,3.55,3.55,0,0,1-3.58,3.57,80.556,80.556,0,0,1-9.148,0,3.541,3.541,0,0,1-3.532-3.543,80.454,80.454,0,0,1,0-9.149,3.586,3.586,0,0,1,3.579-3.578C-135.649,1135.984-134.122,1136.049-132.6,1136Zm-.014,3.088a5.15,5.15,0,0,0-5.166,5.156,5.152,5.152,0,0,0,5.131,5.157,5.151,5.151,0,0,0,5.182-5.139A5.149,5.149,0,0,0-132.612,1139.092Zm4.156-.23a1.19,1.19,0,0,0,1.161,1.221,1.2,1.2,0,0,0,1.24-1.178,1.2,1.2,0,0,0-1.163-1.222A1.191,1.191,0,0,0-128.456,1138.862Z" transform="translate(-92.13 -92.29)" fill="#fee"/>
    <path id="Caminho_8" data-name="Caminho 8" d="M-80.3,1193.041a3.356,3.356,0,0,1-3.326,3.364A3.357,3.357,0,0,1-87,1193.053a3.356,3.356,0,0,1,3.343-3.347A3.354,3.354,0,0,1-80.3,1193.041Z" transform="translate(-141.103 -141.097)" fill="#fee"/>
  </g>
</svg>
