<svg xmlns="http://www.w3.org/2000/svg" width="34.982" height="35" viewBox="0 0 34.982 35">
  <g id="Grupo_13" data-name="Grupo 13" transform="translate(170.002 -871.804)">
    <path id="Caminho_10" data-name="Caminho 10" d="M-153.874,871.8h2.665c.029.093.109.06.17.065a15.469,15.469,0,0,1,2.756.449,17.49,17.49,0,0,1,12.867,20.705,17.51,17.51,0,0,1-21.115,13.3,17.5,17.5,0,0,1-13.286-14.472,4.281,4.281,0,0,0-.186-1.118v-2.87c.107-.039.063-.133.071-.2a18.5,18.5,0,0,1,.289-1.922,17.521,17.521,0,0,1,14.581-13.748A5.381,5.381,0,0,0-153.874,871.8Zm2.9,15.4c0-.559-.01-1.033,0-1.508.006-.207-.052-.275-.267-.273q-1.879.014-3.758,0c-.2,0-.244.066-.242.255.054,4.1.006,8.2,0,12.3,0,.225.059.282.281.28q1.845-.016,3.69,0c.233,0,.305-.049.3-.294-.014-1.127-.009-2.255-.006-3.382q.007-1.947.024-3.894a2.245,2.245,0,0,1,.64-1.468,2.121,2.121,0,0,1,3.593.622,4.971,4.971,0,0,1,.228,1.614c0,2.164,0,4.328-.008,6.491,0,.265.074.313.321.311,1.207-.013,2.414-.015,3.621,0,.271,0,.331-.073.33-.335-.011-2.289-.005-4.578-.007-6.867a9.951,9.951,0,0,0-.092-1.533,5.3,5.3,0,0,0-1.7-3.362c-1.581-1.368-5.171-1.67-6.795.866A2.188,2.188,0,0,1-150.975,887.2Zm-6.611,4.622c0-2.026,0-4.052.006-6.078,0-.25-.054-.331-.318-.327-1.218.015-2.436.012-3.653,0-.227,0-.313.042-.312.294q.012,6.129,0,12.258c0,.222.055.286.281.283,1.229-.011,2.459-.014,3.687,0,.263,0,.316-.072.315-.322C-157.591,895.9-157.586,893.862-157.586,891.824Zm-2.1-12.571a2.282,2.282,0,0,0-2.319,1.548,2.2,2.2,0,0,0,2.087,2.874,2.3,2.3,0,0,0,2.356-1.179A2.215,2.215,0,0,0-159.686,879.253Z" transform="translate(0 0)" fill="#fee"/>
  </g>
</svg>
