<svg xmlns="http://www.w3.org/2000/svg" width="71.601" height="18.164" viewBox="0 0 71.601 18.164">
  <g id="Grupo_351" data-name="Grupo 351" transform="translate(-320.682 -375.158)">
    <path id="Caminho_652" data-name="Caminho 652" d="M328.7,375.658h-5.509a.3.3,0,0,0-.213.088l-1.7,1.7a.3.3,0,0,0-.088.212v2.143a.3.3,0,0,0,.3.3h1.267a.3.3,0,0,0,.3-.3v-1.35a.3.3,0,0,1,.088-.212l.629-.629a.3.3,0,0,1,.212-.088h3.926a.3.3,0,0,1,.212.088l.615.615a.3.3,0,0,1,.088.213v2.535a.3.3,0,0,1-.088.213l-7.462,7.46a.3.3,0,0,0-.088.212v3.312a.3.3,0,0,0,.3.3h8.741a.3.3,0,0,0,.3-.3v-1.267a.3.3,0,0,0-.3-.3h-6.873a.3.3,0,0,1-.3-.3v-.667a.3.3,0,0,1,.088-.213l7.475-7.473a.3.3,0,0,0,.088-.212v-4.078a.3.3,0,0,0-.088-.213l-1.7-1.7A.3.3,0,0,0,328.7,375.658Z" transform="translate(0 0)" fill="#fff" stroke="#fff" stroke-width="1"/>
    <path id="Caminho_653" data-name="Caminho 653" d="M1030.6,392.247l-5.718,15.709a.3.3,0,0,0,.281.4H1036.6a.3.3,0,0,0,.281-.4l-5.717-15.709A.3.3,0,0,0,1030.6,392.247Zm-3.038,13.831,3.038-8.347a.3.3,0,0,1,.563,0l3.039,8.347a.3.3,0,0,1-.281.4h-6.077A.3.3,0,0,1,1027.563,406.079Z" transform="translate(-666.937 -15.536)" fill="#fff" stroke="#fff" stroke-width="1"/>
    <path id="Caminho_654" data-name="Caminho 654" d="M898.534,395.721V381.314a.3.3,0,0,0-.3-.3h-1.275a.3.3,0,0,0-.3.3V397.6a.3.3,0,0,0,.3.3h3.151a.3.3,0,0,0,.3-.3v-1.277a.3.3,0,0,0-.3-.3h-1.275A.3.3,0,0,1,898.534,395.721Z" transform="translate(-545.425 -5.076)" fill="#fff" stroke="#fff" stroke-width="1"/>
    <path id="Caminho_655" data-name="Caminho 655" d="M657.551,381.014H648.77a.3.3,0,0,0-.3.3V397.6a.3.3,0,0,0,.3.3h1.276a.3.3,0,0,0,.3-.3v-3.153a.3.3,0,0,1,.3-.3h6.905a.3.3,0,0,0,.3-.3V381.314A.3.3,0,0,0,657.551,381.014Zm-1.856,11.255h-5.049a.3.3,0,0,1-.3-.3v-8.78a.3.3,0,0,1,.3-.3h5.049a.3.3,0,0,1,.3.3v8.78A.3.3,0,0,1,655.695,392.269Z" transform="translate(-310.197 -5.076)" fill="#fff" stroke="#fff" stroke-width="1"/>
    <path id="Caminho_656" data-name="Caminho 656" d="M1536.827,383.828h-2.515a.15.15,0,0,1-.15-.15v-2.514a.15.15,0,0,0-.15-.15h-1.576a.15.15,0,0,0-.15.15v2.514a.15.15,0,0,1-.15.15h-2.514a.15.15,0,0,0-.15.15v1.576a.15.15,0,0,0,.15.15h2.514a.15.15,0,0,1,.15.15v2.515a.15.15,0,0,0,.15.15h1.576a.15.15,0,0,0,.15-.15v-2.515a.15.15,0,0,1,.15-.15h2.515a.15.15,0,0,0,.15-.15v-1.576A.15.15,0,0,0,1536.827,383.828Z" transform="translate(-1145.194 -5.076)" fill="#fff" stroke="#fff" stroke-width="1"/>
    <path id="Caminho_657" data-name="Caminho 657" d="M1240.938,381.211l-3.814,10.431a.3.3,0,0,1-.563,0l-3.8-10.43a.3.3,0,0,0-.282-.2h-1.354a.3.3,0,0,0-.282.4l5.043,13.852a.3.3,0,0,1,.018.1V397.6a.3.3,0,0,0,.3.3h1.276a.3.3,0,0,0,.3-.3v-2.223a.3.3,0,0,1,.018-.1l5.043-13.857a.3.3,0,0,0-.282-.4h-1.339A.3.3,0,0,0,1240.938,381.211Z" transform="translate(-862.141 -5.076)" fill="#fff" stroke="#fff" stroke-width="1"/>
  </g>
</svg>
